<!--SVG JE NASTAVENE NA DANU VELKOST -->
<svg width="400" height="300" id="krizovatka2" class="krizovatka2" xmlns="http://www.w3.org/2000/svg" >
	
	<!--Zeleny stvorec -->
	<rect x="0" y="0" height="300" width="400" fill="lightgreen"/>
	
	<!--Cesta -->
	<polygon fill="gray" points="0,100 150,100 150,0 250,0 250,100 400,100 400,200 250,200 250,300 150,300 150,200 0,200 0,50"/>
	
	<!--Biele ciary na ceste -->
	<line x1="10" y1="150" x2="40" y2="150" stroke="white"/>
	<line x1="65" y1="150" x2="95" y2="150" stroke="white"/>
	<line x1="120" y1="150" x2="150" y2="150" stroke="white"/>
	<line x1="250" y1="150" x2="280" y2="150" stroke="white"/>
	<line x1="305" y1="150" x2="335" y2="150" stroke="white"/>
	<line x1="360" y1="150" x2="390" y2="150" stroke="white"/>
	<line x1="200" y1="200" x2="200" y2="230" stroke="white"/>
	<line x1="200" y1="255" x2="200" y2="285" stroke="white"/>
	<line x1="200" y1="100" x2="200" y2="70" stroke="white"/>
	<line x1="200" y1="45" x2="200" y2="15" stroke="white"/>
	
	<!--Znacka Hlavnej cesty -->
	<polygon fill="white" points="130,200 150,220 130,240 110,220 130,200"/>
	<polygon fill="yellow" points="130,205 145,220 130,235 115,220 130,205"/>
	<line x1="110" y1="220" x2="80" y2="220" stroke="black"/>
	
	<!--Znacka hlavnej cesty -->
	<polygon fill="white" points="250,80 270,60 290,80 270,100 250,80"/>
	<polygon fill="yellow" points="255,80 270,65 285,80 270,95 255,80"/>
	<line x1="290" y1="80" x2="320" y2="80" stroke="black"/>
	
	<!--Znacka vedlajsej cesty -->
	<polygon fill="red" points="250,200 290,200 270,240 250,200"/>
	<polygon fill="white" points="258,205 282,205 270,230 258,205"/>
	<line x1="270" y1="240" x2="270" y2="270" stroke="black"/>
	
	<!--Znacka vedlajsej cesty -->
	<polygon fill="red" points="150,100 110,100 130,60 150,100"/>
	<polygon fill="white" points="142,95 118,95 130,70 142,95"/>
	<line x1="130" y1="60" x2="130" y2="30" stroke="black"/>
</svg>